mtllib default.mtl
v 0 0 0
v 1 0 0
v 1 1 0
v 0 1 0
v 0 0 1
v 1 0 1
v 1 1 1
v 0 1 1
vt 0 0
vt 1 0
vt 1 1
vt 0 1
vn 0 0 -1
vn 0 0 1
vn 0 -1 0
vn 0 1 0
vn -1 0 0
vn 1 0 0
usemtl material_0
# -Z (front)
f 3/3/1 2/2/1 1/1/1
f 4/4/1 3/3/1 1/1/1
# +Z (back)
f 7/3/2 8/4/2 5/1/2
f 6/2/2 7/3/2 5/1/2
# -Y (bottom)
f 6/3/3 5/2/3 1/1/3
f 2/4/3 6/3/3 1/1/3
# +Y (top)
f 7/3/4 3/2/4 4/1/4
f 8/4/4 7/3/4 4/1/4
# -X (left)
f 8/3/5 4/2/5 1/1/5
f 5/4/5 8/3/5 1/1/5
# +X (right)
f 7/3/6 6/2/6 2/1/6
f 3/4/6 7/3/6 2/1/6